<?xml version="1.0" encoding="UTF-8" standalone="no"?>
<svg version="1.1" width="255" height="255" id="svg40" xml:space="preserve" xmlns="http://www.w3.org/2000/svg" xmlns:svg="http://www.w3.org/2000/svg">
	<defs id="defs40" />
	<g style="clip-rule:evenodd;display:inline;fill-rule:evenodd;stroke-linejoin:round;stroke-miterlimit:2" id="g42" transform="matrix(0.99609671,0,0,0.99609671,-3.5859482e-4,-0.00215157)">
		<path style="fill:none;stroke-width:0.98084" d="M 3.6e-4,0.00216 H 255.9996 V 256.0014 H 3.6e-4 Z" id="path1-0" />
		<path style="fill:#363426;stroke-width:0.999996" d="M 6.3356e-4,0.00216 H 255.99956 V 256.00109 H 6.3356e-4 Z" id="path3-4" />
		<path d="M 95.99659,60.001909 V 108.00171 H 71.239694 L 43.996808,60.001909 Z m 11.56795,111.999531 h 40.86383 l -20.43191,35.99985 z m 77.18868,-63.99973 h -24.7569 V 60.001909 h 51.99978 z" style="fill:#c9b269;stroke-width:0.999996" id="path5-8" />
		<path d="M 6.3356e-4,256.0014 V 0.00216 H 255.99956 V 256.0014 Z M 241.99962,13.996785 H 14.000575 V 242.00677 H 241.99962 Z M 231.99966,232.00574 H 199.9998 l 31.99986,-31.99991 z M 24.000533,23.997822 H 56.000399 L 24.000533,55.997727 Z m 207.999127,0 V 55.997727 L 199.9998,23.997822 Z M 24.000533,232.00574 v -31.99991 l 31.999866,31.99991 z" style="fill:#c9b269;stroke-width:4.13117" id="path6" />
			  
		<g id="g40" transform="matrix(0.49999852,0,0,0.49999852,3.5999999e-4,0.00216)">
			<path d="m 0,0 h 44 l 4,4 v 12 h 24 v 76 l -5,4 h -90 l -5,-4 V 16 H -4 V 4 Z" fill="#fefefe" transform="translate(288,234)" id="path3" />
			<path d="m 0,0 h 90 l 4,4 v 40 l -4,4 H 0 L -4,44 V 4 Z" fill="#ffffff" transform="translate(210,146)" id="path7" />
			<path d="M 0,0 C 2.25,1.5625 2.25,1.5625 4,4 4.9256928,17.497198 -5.4039869,55.532056 -20,72 -34.94466,68.162436 -44.879092,61.14415 -53,48 -55.050925,44.488142 -56,41.709953 -56,37.5625 -51.3413,20.965883 -30.305401,9.3327659 -15.376953,2.9941406 -4.1971407,-1.7050884 -4.1971407,-1.7050884 0,0 Z" fill="#ffffff" transform="translate(211,260)" id="path9" />
			<path d="m 0,0 h 42 l 4,4 v 14 h 20 l 4,2 v 14 l -4,2 h -90 l -4,-2 V 20 l 4,-2 H -4 V 4 Z" fill="#ffffff" transform="translate(234,104)" id="path10" />
			<path d="M -34,67 C -9.4179304,25.121363 -11.622732,3.9122617 -10,0 -7.0297551,-1.549693 -3.5157271,-2.2156315 -1.2536322,-1.5149183 3.8246315,0.05813971 13.86384,17.063837 12.834768,34.771116 12.357764,42.978947 9.3476798,69.766873 -34,67 Z" fill="#ffffff" transform="translate(228,266)" id="path15" />
			<path d="m 0,0 h 94 l 2,2 v 12 l -2,2 H 76 v 2 l -2,2 H 68 L 66,18 V 16 H 28 v 2 l -2,2 H 20 L 18,18 V 16 H 0 L -2,14 V 2 Z" fill="#ffffff" transform="translate(208,202)" id="path16" />
			<path d="M -0.15705521,1.4134969 C 5.2410704,4.495018 8.5380986,7.910938 11.125,13.4375 12.593916,20.635189 12.190506,26.938067 8.75,33.5 c -3.4400204,5.110887 -7.1482375,8.182175 -13,10 -5.864471,0.913701 -10.993562,0.358938 -16.179687,-2.601563 C -25.400701,37.079504 -29.020827,31.645863 -30.25,25.5 c -0.976234,-7.67614 0.454914,-13.682548 5,-20 7.081765,-6.792432 15.7152104,-8.1881325 25.09294479,-4.0865031 z" fill="#383628" transform="translate(319.25,268.5)" id="path17" />
			<path d="m 0,0 c 8.3408047,-0.41704024 16.725416,1.5338385 23.808594,6.0195312 2.113281,2.1718751 2.113281,2.1718751 2.425781,4.9218748 l -0.3125,2.25 -2.238281,0.917969 c -20.9458824,7.197687 -34.688048,13.160457 -46.838963,27.513678 -2.2461,2.653196 -3.687006,6.343911 -5.922756,9.568353 h -1 C -32.525438,3.2240757 -0.60562334,0.0557811 0,0 Z" fill="#ffffff" transform="translate(183.07812,242.80859)" id="path18" />
			<path d="M 0,0 C 25.790586,-2.9606402 23.208928,40.320162 18.278144,51.414428 17.861689,51.220082 16.668977,50.803627 16.668977,50.803627 17.274839,35.520753 13.808519,22.566368 9.4074762,15.100379 5.1223461,7.8310261 -0.08973927,5.8872329 -0.3125,3.125 Z" fill="#ffffff" transform="translate(227,256)" id="path21" />
			<path d="m 15,2.25 1,8 c -2.658844,1.329422 -4.072122,1.930289 -7,2 -8.44978144,-4.8838107 -17.2823875,-7.1952105 -27,-8 7.047039,-4.93552205 21.3433624,-5.8248342 33,-2 z" fill="#ffffff" transform="translate(201,236.75)" id="path25" />
			<path d="M 0,0 C 2.0625,1.625 2.0625,1.625 3,4 2.9341674,7.7524595 2.8159881,10.063125 0.3125,12.9375 -2.7864448,14.36134 -4.6218281,14.551538 -8,14 -10.9375,11.9375 -10.9375,11.9375 -13,9 -13.0657,5.1893676 -12.801305,3.0256709 -10.4375,0 -6.7985546,-1.4929007 -3.7261529,-1.1446868 0,0 Z" fill="#3c3a2c" transform="translate(283,259)" id="path26" />
			<path d="m 3.722363,3.7778904 c 0.9806295,4.8855959 0.5609109,6.8703216 -4.00000002,8.3897056 -3.90759148,0 -4.37682658,0.305066 -7.26445188,-2.3545893 C -9.4576045,6.4976914 -9.3221732,5.93186 -8.6673423,2.1665822 c 1.7283218,-2.06069143 3.6518989,-2.87092495 5.9456404,-2.62712415 1.97521398,0.20994464 4.2679762,1.05799499 6.4440649,4.23843235 z" fill="#ffffff" transform="translate(221,250)" id="path28" />
			<path d="M 0,0 C 8.2518512,2.0629628 13.966925,7.3940893 19,14 12.305492,13.884214 9.4964419,14.143345 8.8428337,13.284975 6.7763876,9.6415094 3.3979619,8.0183333 0,6 -0.1875,2.875 -0.1875,2.875 0,0 Z" fill="#ffffff" transform="translate(219,241)" id="path32" />
		</g>
	</g>
</svg>
