<svg viewBox="0 0 128 128" xmlns="http://www.w3.org/2000/svg" xml:space="preserve" style="fill-rule:evenodd;clip-rule:evenodd;stroke-linejoin:round;stroke-miterlimit:2">
  <desc>Traced by Dogo314</desc>
  <path style="fill:none" d="M1343 2977h128v128h-128z" transform="translate(-1343 -2977)"/>
  <path d="M282 3777c34.567-61 76-75 118-89 41.847-13.949 74-45.89 74-90 0-20.616-4-34-12-53 29 31 52 69.333 52 104s-22 72-52 104H358c-29 0-54 7-76 24m42.53-72.348c-8.232-63.873 29.271-98.942 75.47-115.652-24.448 25.426-26.9 58.502-3.617 83.331l-1.443.49c-24.034 8.012-47.814 16.132-70.41 31.831m226.102 151.716H245.368v-24.421h305.264zm0-36.631H245.368v-12.211h305.264zm0-329.684v12.21H245.368v-12.21zm0 24.421v12.21H245.368v-12.21zm-415.158 286.947v-36.632l12.21-12.21v-183.158l-12.21-12.21v-30.527l-18.316-18.316v-48.842l18.316-18.315h73.263l12.21 12.21 6.106 36.632v12.21h-12.211l-18.316 18.316v293.053l18.316 18.315h12.211v24.421l-24.421 18.316h-85.474l-12.211-12.21v-30.527zm45.789-278.53 15.263-15.263v-49.525l8.418-7.735h-65.677l-12.951 12.952v41.255l18.316 18.316zm3.053-57.259v36.631h-42.737v-36.631zm-67.158 366.315v6.106h42.737l24.421-24.421v-6.106h-42.737zm109.895-24.421v12.211h-12.211l-12.21-12.211zm0-280.842h-24.421l12.21-12.21h12.211zm433.473 274.737 30.527 30.526v30.527l-12.211 12.21h-85.474l-24.421-18.316v-24.421h12.211l18.316-18.315v-293.053l-18.316-18.316h-12.211v-12.21l6.106-36.632 12.21-12.21h73.263l18.316 18.315v48.842l-18.316 18.316v30.527l-12.21 12.21v183.158l12.21 12.21zm18.316 30.526-24.421-24.421h-42.737v6.106l24.421 24.421h42.737zm-64.105-309.056h36.631l18.316-18.316v-41.255l-12.951-12.952h-65.677l8.418 7.735v49.525zm-3.053-57.259h42.737v36.631h-42.737zm-42.737 341.894h24.421l-12.21 12.211h-12.211zm0-280.842v-12.21h12.211l12.21 12.21z" style="fill:#fff" transform="translate(-1.19 -534.647)scale(.1638)"/>
</svg>
